<svg width="92" height="75" viewBox="0 0 92 75" fill="none" xmlns="http://www.w3.org/2000/svg"><path d="M36.329 33.398c1.73-17.09 8.568-25.745 20.594-25.745 2.908 0 5.581.747 8.096 2.24a20.652 20.652 0 016.131 5.67c1.808 2.314 3.144 4.925 4.087 7.76.865 2.762 1.337 5.597 1.337 8.358 0 2.986-.158 6.343-.314 10.224-.236 3.955-1.023 7.537-2.36 10.896-1.257 3.358-3.38 5.82-6.445 7.536-2.909 1.717-7.074 1.94-12.341.522l.707.672c.315.373.943.97 1.887 1.343 1.021.521 2.122.97 3.616 1.418 1.572.448 3.302.597 5.502.597 2.908 0 5.817-1.343 8.646-4.253 2.908-2.762 5.03-6.94 6.446-12.463 1.494-5.522 1.73-12.387.629-20.596-1.258-7.238-3.852-12.985-7.86-17.238-4.088-4.254-8.804-6.792-14.07-7.761-5.424-.97-10.77 0-16.035 2.761-2.044.97-4.088 2.686-6.289 5.075-2.122 2.388-3.931 5.82-5.66 10.074-1.572 4.254-2.357 9.701-2.593 16.268-.078 7.24.943 13.805 2.987 19.402 2.122 5.597 5.345 10.074 9.589 13.209 4.323 3.357 9.825 5.075 16.427 5.224l7.625-.373c-8.096 0-14.463-2.016-19.1-5.896-4.559-3.955-7.703-9.03-9.51-15.372-1.73-6.118-2.28-12.761-1.73-19.55v-.002z" fill="#5669FF"></path><path d="M53.623.638C61.875.19 68.4 1.832 73.273 5.787c4.875 3.806 8.253 8.955 10.219 15.223 1.965 6.27 2.594 12.91 1.965 19.85-.943 8.956-3.066 15.447-6.524 19.552-3.458 4.328-8.175 6.342-14.148 6.417-9.197-.521-15.17-5.97-18-16.192-1.101-4.179-1.65-8.73-1.808-13.656 0-4.775.707-9.253 2.2-13.432 1.416-4.254 3.695-7.313 6.84-9.403 3.143-2.09 7.152-2.24 12.105-.523-.472-.597-1.101-1.343-2.28-2.09-.943-.895-2.515-1.418-4.48-1.716-1.966-.3-4.56-.15-7.625.745-2.202.523-4.48 2.24-6.84 5-2.357 2.91-4.165 6.79-5.423 11.94-1.18 5.149-1.337 11.493-.158 19.104 1.179 6.566 3.302 12.014 6.682 16.416 3.38 4.328 7.545 7.09 12.733 8.432 5.03 1.269 10.847.746 17.292-1.642 4.796-1.792 8.646-5.522 11.398-11.045 2.83-5.672 4.323-12.91 4.323-21.865 0-5-.55-9.924-1.965-14.701-1.179-4.851-3.222-9.104-6.13-12.686-2.91-3.656-6.839-6.343-11.791-8.059C66.984-.186 60.853-.41 53.62.636l.002.002zM0 6.675l11.297-.976V75h6.636V0L0 1.275v5.4zM21.961 0h-1.658v75h6.635V4.8L21.961 0z" fill="#5669FF"></path><path d="M0 14.25l9.006-.675V7.95L0 8.55v5.7z" fill="#5669FF"></path></svg>