<svg width="53" height="75" viewBox="0 0 53 75" fill="none" xmlns="http://www.w3.org/2000/svg"><path d="M5.852 22.108c.157-5.327 1.561-9.303 3.824-12.303 2.42-3.001 5.307-4.952 8.974-6.153a32.794 32.794 0 0111.237-1.5c3.746.15 7.413.825 10.535 1.876A28.677 28.677 0 0031.448.65c-3.511-.675-7.1-.825-10.77-.45-3.589.45-7.022 1.5-10.143 3.152-3.122 1.65-5.541 3.976-7.57 7.127C1.014 13.63 0 17.607 0 22.408v2.175h5.852v-2.476.001z" fill="#5669FF"></path><path d="M42.14 40.189c2.575-2.702 4.448-5.627 5.696-9.003 1.17-3.152 1.56-6.302 1.404-9.602-.234-3.152-1.093-6.002-2.81-8.778-1.56-2.477-3.98-4.651-6.867-6.302-3.122-1.651-6.789-2.475-11.237-2.475-3.667 0-6.711.45-9.365 1.5-2.419.975-4.291 2.25-5.852 3.75-1.405 1.726-2.575 3.151-3.278 5.028-.702 1.651-1.17 3.3-1.404 4.952-.157 1.5-.312 2.85-.312 3.826v1.5h5.697v-1.65c-.156-1.201 0-2.476.312-4.2.234-1.427.858-3.152 1.951-4.577 1.015-1.725 2.42-3 4.448-4.202 2.107-.976 4.683-1.65 8.116-1.65 2.81 0 5.384.674 7.413 2.024 2.263 1.126 3.824 2.776 5.073 4.651 1.326 1.95 1.873 3.976 1.873 5.928 0 3.676-.547 6.827-1.717 9.828-1.093 2.776-2.965 5.476-5.54 7.802-2.42 2.176-5.385 5.102-9.286 8.778-3.824 3.827-7.804 7.652-11.784 11.478-3.98 3.976-7.413 7.278-10.144 10.128C1.717 71.55.312 73.05.312 73.05V75h48.382l1.718-5.477h-38.47s1.17-.976 3.434-3.301c2.262-2.176 4.993-4.951 8.427-8.103 3.277-3.151 6.554-6.452 10.066-9.827 3.277-3.152 6.01-5.928 8.272-8.103h-.001z" fill="#5669FF"></path><path d="M22.944 62.245l-5.696 5.627h33.71l1.873-5.627H22.944zM40.422 21.582c0-2.85-.545-5.102-1.95-6.827-1.171-1.651-2.732-2.776-4.604-3.451-1.951-.675-3.824-.976-5.93-.826-2.03 0-3.903.3-5.463.976-1.795.675-2.966 1.5-3.668 2.475 4.994-1.65 8.818-1.5 11.394.526 2.575 2.025 3.823 4.65 3.98 7.953.156 3.3-1.015 6.301-3.278 9.003-3.278 3.3-7.804 7.952-13.266 13.579C11.941 50.767 7.26 55.418 3.435 59.095 1.563 61.27.314 62.395.157 62.62v7.127l32.618-31.885s.39-.376 1.25-.976c.701-.825 1.717-2.025 2.574-3.377 1.015-1.5 1.873-3.15 2.73-5.101.703-2.176 1.093-4.351 1.093-6.827z" fill="#5669FF"></path></svg>