<svg width="57" height="75" viewBox="0 0 57 75" fill="none" xmlns="http://www.w3.org/2000/svg"><path d="M36.342 5.63L13.624 30.247l2.929 5.555L48.929.002H4.601L5.945 5.63h30.397z" fill="#5669FF"></path><path d="M6.262 7.656l1.266 5.255h19.078l4.432-5.255H6.262zM29.375 37.903h1.267c.713.15 1.821.15 2.93.525 1.266.376 2.375.9 3.64 1.726 1.109.676 2.217 1.952 2.93 3.302.95 1.576 1.345 3.453 1.345 5.929 0 2.777-.79 5.178-2.058 7.43-1.424 2.103-3.482 3.53-6.411 4.354-2.77.9-6.016.75-10.29-.3.396 1.05 1.662 1.877 4.274 2.401 2.375.676 5.146.9 8.233.376 3.087-.376 6.015-1.726 8.39-4.204 2.612-2.25 4.037-5.928 4.591-10.732 0-3.302-.712-6.08-1.82-8.181-1.266-1.952-2.77-3.453-4.354-4.504-1.662-1.05-3.484-1.95-5.145-2.25-1.821-.527-3.326-.752-4.434-.752h-1.82L53.913 7.355 51.698 0 17.659 37.902h11.715l.001.001z" fill="#5669FF"></path><path d="M39.27 26.646l-3.64 4.653s.474.15 1.582.376c.95 0 2.217.526 3.722 1.05a16.199 16.199 0 014.59 2.928c1.425 1.427 2.692 3.152 3.8 5.555.95 2.477 1.504 5.403 1.504 9.006 0 2.627-.791 5.103-2.058 6.98-1.267 1.951-2.93 3.452-4.907 4.877-2.058 1.202-4.038 2.252-6.254 2.778-2.217.675-4.038 1.05-5.858 1.05-2.93 0-5.542-.525-7.52-1.576-1.98-1.05-3.642-2.402-4.75-3.828-1.267-1.576-2.217-3.152-2.77-4.653-.712-1.576-1.109-2.777-1.266-3.828-.159-1.051-.396-1.576-.396-1.576h-6.57s0 .525.158 1.726a48.58 48.58 0 001.109 4.504c.712 1.726 1.662 3.677 2.929 5.404 1.267 1.876 3.166 3.601 5.303 5.178 2.375 1.427 5.304 2.478 8.787 3.153 1.662.15 3.878.15 6.649.15 2.929-.15 5.858-.675 8.946-1.726 3.166-.826 6.095-2.626 8.628-4.879 2.533-2.25 4.196-5.554 5.146-9.682.87-4.728 1.108-8.706.158-11.858-.87-3.303-2.216-5.854-3.878-7.956a23.05 23.05 0 00-5.858-4.878c-1.82-1.05-3.642-1.876-5.066-2.252-1.505-.525-2.217-.675-2.217-.675l-.002-.001z" fill="#5669FF"></path><path d="M6.104 50.437H.009c-.16 6.905 1.899 12.309 5.936 16.137 3.8 3.828 8.787 6.23 14.408 7.505 5.7 1.202 11.24 1.202 16.544.15 5.146-1.05 8.945-2.927 11.32-5.93-4.908 2.478-9.658 3.829-14.645 3.98-4.908.375-9.34-.3-13.537-2.027-4.194-1.726-7.52-4.352-10.131-7.656-2.533-3.452-3.799-7.505-3.799-12.158l-.001-.001z" fill="#5669FF"></path></svg>