<svg width="53" height="75" viewBox="0 0 53 75" fill="none" xmlns="http://www.w3.org/2000/svg"><path d="M45.843 37.2c-3.253-3-6.876-4.95-10.648-5.624-4.066-.826-7.69-.6-11.313.45-3.623 1.275-6.432 3-8.725 5.624l-7.912-2.624 4.88-29.775H48.8L50.28.225C46.656.225 42.59 0 37.71 0H7.69L1.7 38.476s.666 0 1.7.45c1.11.224 2.589.674 4.068.9 1.478.45 3.18.825 4.658 1.274 1.479.45 2.81.675 3.623.9 1.33-2.175 3.253-3.675 5.546-4.8 2.366-1.05 5.102-1.725 7.911-1.725 2.81 0 5.546.45 8.06 1.5 2.588 1.125 4.732 2.625 6.433 4.8 1.479 2.175 2.366 4.725 2.366 7.95 0 1.35 0 3.3-.222 5.4-.444 2.4-1.109 4.8-2.144 7.35-1.11 2.625-2.81 5.25-5.102 7.35-2.588 2.175-5.99 3.9-10.278 5.175 5.102-.15 9.39-1.275 12.348-3.225 3.255-1.725 5.546-4.05 7.098-6.675 1.701-2.85 2.515-5.175 3.18-7.575.443-2.4.592-3.9.592-4.725 0-3.9-.37-7.125-1.701-9.75-1.035-2.4-2.514-4.35-3.993-5.85z" fill="#000000"></path><path d="M44.143 52.35c0-3.45-.666-6.075-1.701-8.025a14.098 14.098 0 00-4.067-4.5c-1.478-.9-3.031-1.5-4.51-1.95-1.479-.225-2.514-.45-3.18-.225 3.402 1.5 5.768 3.675 6.803 6.3.887 2.775 1.33 5.4 1.11 7.95-.223 2.4-.666 4.125-.888 5.175-1.257 3.9-2.958 6.75-5.102 8.475-2.144 1.725-4.288 2.775-6.21 3-2.072.45-3.402.675-4.216.45-2.81 0-5.102-.45-7.024-1.5-1.923-1.125-3.402-2.4-4.732-3.9-1.257-1.5-2.144-3.225-2.958-4.8-.665-1.5-1.109-2.775-1.257-3.9-.444-1.05-.444-1.5-.444-1.5H0s.222.675.222 1.95c.222 1.5.813 3.225 1.479 5.175.887 2.175 2.144 4.125 3.845 6.3C7.024 68.775 9.39 70.5 12.126 72c2.81 1.275 6.433 1.95 10.648 1.95 2.588 0 4.954-.45 7.468-1.5 2.588-.9 4.955-2.4 6.803-4.35 2.144-1.95 3.845-4.275 5.175-6.9 1.257-2.625 1.923-5.625 1.923-8.85z" fill="#000000"></path><path d="M34.308 59.7c-2.588 1.05-4.658 1.95-6.359 2.4-3.031.375-5.546.15-7.468-.9-1.922-1.05-3.253-2.4-4.288-3.9-1.036-1.5-1.701-2.775-1.701-3.9v-.225h-6.36c.15 3.075 1.258 5.625 3.18 8.025 1.923 2.175 4.215 3.9 6.803 4.95 2.736 1.125 5.546 1.125 8.503.225 2.81-.825 5.324-3 7.69-6.675zM46.065 12.826L48.136 7.2H14.049L9.982 33.975s.222 0 .888.225c.665.225 1.257.225 1.922.45.813.15 1.479.376 2.144.6.592-1.05 2.293-2.174 5.102-3.674 2.736-1.276 5.99-2.175 9.76-2.326 4.067-.45 7.912.376 11.979 2.326 4.066 1.95 7.468 5.85 10.647 11.7-1.7-6.076-4.288-10.2-7.69-12.75-3.623-2.625-7.467-4.125-11.46-4.35-4.067-.45-7.69 0-10.87.9-3.253.825-5.324 1.95-6.432 3 .221-1.276.443-2.776.887-4.726.221-1.95.591-3.675.813-5.624.222-1.95.665-3.675.887-5.025.222-1.275.222-1.875.222-1.875h27.284z" fill="#000000"></path></svg>