<svg width="53" height="75" viewBox="0 0 53 75" fill="none" xmlns="http://www.w3.org/2000/svg"><path d="M44.005 46.477c-1.109-4.047-2.736-6.897-5.029-8.77-2.292-1.8-4.732-2.924-7.32-3.223-2.66-.3-4.953-.225-7.099.3-2.07.45-3.4 1.05-4.066 1.65v.075c-.37.375-.666.824-.814 1.2-.295.45-.517.973-.813 1.723a97.07 97.07 0 00-.887 3.224c2.587-2.7 5.545-3.974 8.873-3.974 3.328 0 6.137 1.275 8.43 3.75 2.366 2.398 3.328 5.92 2.884 10.494-.592 4.498-2.07 7.796-4.363 9.895-2.293 2.1-4.88 3.374-7.765 3.822-2.884.376-5.545.376-8.06-.15-2.44-.6-4.214-1.2-5.175-1.949-2.44-1.874-4.215-3.974-5.25-6.146-1.11-2.25-1.627-4.498-1.774-6.748-.074-2.173.073-4.197.517-6.071.37-1.875.813-3.298 1.33-4.424.444-1.124.666-1.724.666-1.724L25 .075h-6.21L3.927 35.532s-.296.825-.961 2.475c-.665 1.724-1.257 3.897-1.849 6.595-.592 2.624-.814 5.472-.665 8.547.148 3.073.962 6.071 2.44 8.92 1.701 3.148 4.289 5.547 7.617 7.197 3.328 1.724 6.802 2.548 10.352 2.548 4.288 0 7.838-.6 10.721-1.724 2.81-1.124 5.102-2.623 6.876-4.422a20.128 20.128 0 003.845-5.77c.814-2.1 1.405-4.049 1.627-5.998.222-1.874.37-3.523.296-4.872-.074-1.349-.149-2.248-.222-2.549v-.002z" fill="#000000"></path><path d="M11.1 60.195c2.22 2.473 4.584 4.047 7.099 4.573 2.514.6 4.953.6 7.172 0 2.293-.6 4.142-1.35 5.62-2.324 1.48-.974 2.218-1.8 2.367-2.474-2.366 1.5-4.88 2.099-7.69 2.099-2.736-.075-5.176-1.05-7.32-2.774-2.07-1.799-3.328-4.498-3.771-8.171-.444-3.599.517-8.322 2.884-14.018 1.109-2.549 2.514-5.847 4.288-9.895 1.85-4.047 3.697-8.095 5.546-12.294a377.99 377.99 0 004.733-10.57C33.358 1.5 34.024 0 34.024 0h-6.21L12.802 34.707s-.444.9-1.258 2.698c-.813 1.8-1.627 4.048-2.366 6.822-.665 2.7-1.035 5.472-.887 8.396.074 2.848 1.036 5.397 2.81 7.571l-.001.001z" fill="#000000"></path><path d="M47.182 34.408c-2.217-2.549-4.658-4.273-7.32-5.172a20.938 20.938 0 00-7.839-1.275c-2.514.075-4.585.375-6.285.75-1.627.374-2.44.6-2.44.6l-2.514 5.021s.517-.225 1.553-.749c1.035-.525 2.44-.9 4.214-1.274 1.775-.375 3.772-.375 6.064-.075 2.22.3 4.584 1.275 7.098 2.848 1.923 1.35 3.475 2.925 4.51 4.723a18.778 18.778 0 012.07 5.397c.37 1.799.592 3.298.592 4.498v1.875s-.074.899-.37 2.623c-.222 1.724-.887 3.824-1.923 6.297-1.035 2.398-2.587 4.722-4.805 6.97-2.145 2.325-5.102 4.048-8.947 5.248-3.771 1.124-8.577 1.349-14.42.525.37.45 1.997.9 4.955 1.425 2.884.45 6.285.45 10.277 0 3.993-.526 7.838-2.025 11.535-4.498 3.698-2.475 6.507-6.597 8.43-12.145 1.035-2.998 1.405-6.596.962-10.869-.37-4.273-2.22-8.47-5.398-12.743h.001z" fill="#000000"></path></svg>