<svg width="52" height="76" viewBox="0 0 52 76" fill="none" xmlns="http://www.w3.org/2000/svg"><path d="M38.076 32.553l4.14 2.101s.37-.225 1.184-.75c.739-.6 1.627-1.35 2.661-2.475 1.035-1.05 1.923-2.4 2.736-4.126.814-1.65 1.33-3.6 1.48-5.85.147-2.326-.223-4.95-1.11-7.876-1.775-4.575-4.288-7.876-7.764-9.825-3.475-1.95-6.951-3.076-10.5-3.45-3.55-.3-6.284-.376-8.208-.075.519.074 1.184.225 1.997.375 1.997.225 4.364.826 7.099 1.725 2.809.975 5.323 2.626 7.69 5.102 2.365 2.4 3.919 6.075 4.658 10.875.295 2.251.221 4.276-.37 6.001a14.863 14.863 0 01-2.145 4.501c-.887 1.2-1.7 2.175-2.44 2.775-.74.675-1.108.976-1.108.976v-.004z" fill="#5669FF"></path><path d="M29.424 29.854l6.285 1.874s.443-.3 1.257-.9c.887-.675 1.774-1.65 2.736-3 .962-1.35 1.627-3 2.144-4.95.444-1.951.37-4.276-.222-6.902-1.257-4.425-3.77-7.8-7.616-10.2-3.77-2.4-7.763-3.527-12.053-3.527-3.845 0-7.024.6-9.539 1.801C9.902 5.251 7.98 6.826 6.574 8.776c-1.479 1.95-2.44 4.05-3.03 6.3-.593 2.251-.815 4.425-.815 6.602 0 3 1.11 6 3.402 8.85 2.219 2.85 5.398 5.026 9.465 6.452 1.257.375 2.588.75 4.14 1.125 2.81.674 5.62 1.574 8.503 2.625 2.885 1.125 5.25 2.7 7.098 4.725 1.85 2.025 2.515 4.8 2.071 8.251-.665 3.526-2.144 5.85-4.585 7.051-2.366 1.2-4.805 1.725-7.32 1.5-2.587-.224-4.436-.75-5.693-1.425 3.55 3.526 7.172 5.175 10.722 5.025 3.623-.075 6.654-1.426 9.169-3.9 2.514-2.476 3.697-5.326 3.697-8.401s-.443-5.401-1.478-7.351c-1.036-1.95-2.293-3.45-3.772-4.651-1.479-1.125-3.031-2.1-4.658-2.701-1.627-.675-3.032-1.2-4.289-1.5-.295-.15-.443-.225-.665-.225-6.21-2.025-10.648-3.977-13.457-5.851-2.884-1.8-4.659-3.6-5.472-5.326-.814-1.725-1.257-3.376-1.33-5.025-.149-1.2 0-2.625.37-4.126.443-1.574 1.183-3.075 2.217-4.5a12.207 12.207 0 014.14-3.601c1.627-.976 3.698-1.5 6.064-1.5 3.18 0 5.694.524 7.69 1.5 2.07.976 3.623 2.175 4.732 3.6 1.109 1.35 1.922 2.776 2.366 4.126.443 1.275.665 2.326.665 3.075 0 2.1-.37 3.826-1.109 5.176-.665 1.35-1.479 2.4-2.44 3.15-.888.75-1.701 1.276-2.44 1.575l-1.109.45.001.003z" fill="#5669FF"></path><path d="M31.495 13.727c-1.552-2.1-3.475-3.375-5.767-3.975-2.292-.6-4.585-.526-6.876.15-2.22.6-4.142 1.8-5.694 3.45-1.552 1.651-2.366 3.676-2.366 6.076 0 2.625.592 4.8 1.7 6.601a14.414 14.414 0 004.216 4.276 26.861 26.861 0 005.25 2.7c1.849.601 3.55 1.202 5.102 1.576.444.15.887.225 1.257.375 6.507 2.025 11.091 4.575 13.605 7.65 2.513 3 3.77 6.301 3.697 9.751 0 4.276-1.184 7.801-3.475 10.352-2.292 2.55-5.102 4.2-8.503 4.876-3.327.675-6.655.225-9.982-1.201-3.328-1.426-5.99-3.975-8.06-7.65-.665-1.201-1.036-3.075-1.11-5.551-.073-2.476.593-4.875 2.072-7.126 1.479-2.25 4.141-3.75 8.133-4.5-.665-.151-1.405-.376-2.219-.601-.887-.225-1.7-.45-2.588-.675-.813-.225-1.552-.375-2.144-.525-.517-.15-.814-.3-.814-.3s-.443.3-1.33.75c-.887.526-1.85 1.35-2.958 2.55-1.109 1.202-2.07 2.927-2.958 5.026-.887 2.1-1.33 4.802-1.33 8.102 0 2.775.887 5.476 2.736 8.1 1.775 2.625 4.361 4.801 7.69 6.45 3.327 1.726 7.172 2.551 11.609 2.551.665 0 1.849-.074 3.475-.225 1.627-.15 3.401-.524 5.397-1.2a17.87 17.87 0 005.62-3.226c1.85-1.425 3.401-3.374 4.584-5.85 1.184-2.475 1.774-5.626 1.774-9.526 0-3.601-.592-6.526-1.849-8.926a17.983 17.983 0 00-4.806-5.7 31.132 31.132 0 00-6.36-3.525c-2.29-.825-4.436-1.65-6.58-2.251a17.788 17.788 0 01-1.85-.6c-.517-.15-1.183-.376-1.848-.526a61.442 61.442 0 01-3.623-1.125c-1.258-.45-2.441-1.05-3.624-1.8a8.09 8.09 0 01-2.736-3.15c-.738-1.276-1.108-3.001-1.108-5.026 0-.526.221-1.35.665-2.476.517-1.2 1.257-2.25 2.366-3.3 1.183-.976 2.662-1.65 4.511-1.95 1.923-.3 4.289.15 7.098 1.125l.001-.001z" fill="#5669FF"></path><path d="M9.904 36.604s-.592.45-1.775 1.426c-1.257.9-2.515 2.25-3.919 3.975-1.405 1.8-2.514 3.9-3.253 6.45-.813 2.476-.887 5.401-.222 8.701 1.036 4.276 2.663 7.65 4.807 10.127 2.144 2.4 4.51 4.2 7.173 5.325 2.661 1.2 5.175 1.875 7.616 2.175 2.514.225 4.51.3 6.137.225 1.628-.15 2.366-.225 2.366-.225s-.961-.15-2.957-.376c-1.998-.3-4.364-.9-7.1-2.025-2.736-1.05-5.25-2.775-7.616-5.175-2.366-2.4-3.993-5.7-4.88-9.901-.444-2.926-.37-5.551.37-7.802.74-2.326 1.7-4.275 2.958-5.85 1.257-1.577 2.366-2.851 3.401-3.676a49.198 49.198 0 011.553-1.201l-4.659-2.175v.002z" fill="#5669FF"></path></svg>