<svg width="53" height="76" viewBox="0 0 53 76" fill="none" xmlns="http://www.w3.org/2000/svg"><path d="M8.73 28.588c1.036 3.977 2.737 6.903 5.03 8.78 2.292 1.8 4.732 2.85 7.319 3.226 2.662.3 5.028.225 7.099-.225 1.997-.525 3.401-1.126 4.067-1.726v-.075c.37-.45.592-.825.813-1.2.222-.45.517-.976.74-1.727.294-.75.59-1.8.96-3.226-2.587 2.702-5.545 4.052-8.872 3.977-3.328 0-6.138-1.275-8.43-3.676-2.366-2.477-3.328-6.003-2.885-10.505.592-4.577 2.071-7.878 4.364-9.98 2.292-2.1 4.88-3.376 7.763-3.827 2.884-.45 5.545-.375 8.06.15 2.44.601 4.141 1.202 5.175 1.952 2.441 1.876 4.215 3.977 5.25 6.228 1.036 2.251 1.628 4.427 1.701 6.678.074 2.176-.073 4.201-.443 6.077-.444 1.8-.888 3.302-1.331 4.427-.517 1.2-.74 1.726-.74 1.726L27.733 75.035h6.138l14.936-35.492s.296-.825.961-2.551c.666-1.651 1.258-3.827 1.775-6.453.591-2.702.813-5.553.665-8.63-.074-3.075-.887-6.077-2.366-8.928-1.774-3.15-4.288-5.553-7.69-7.203-3.326-1.65-6.729-2.55-10.204-2.55-4.362 0-7.911.6-10.796 1.725-2.81 1.201-5.102 2.626-6.802 4.502-1.701 1.726-3.032 3.677-3.845 5.778-.887 2.027-1.406 4.052-1.7 5.927-.223 1.95-.37 3.527-.296 4.878.073 1.35.148 2.176.222 2.551v-.001z" fill="#000000"></path><path d="M41.635 14.93c-2.218-2.55-4.585-4.051-7.098-4.652-2.514-.524-4.88-.524-7.172 0-2.293.6-4.142 1.35-5.62 2.327-1.479 1.05-2.292 1.801-2.366 2.4 2.366-1.35 4.954-2.025 7.69-1.95 2.736.074 5.176.975 7.32 2.776 2.07 1.726 3.328 4.426 3.771 8.103.37 3.602-.591 8.33-2.884 13.957-1.109 2.551-2.588 5.852-4.363 9.979a1593.235 1593.235 0 01-5.472 12.306c-1.85 4.126-3.475 7.652-4.732 10.505-1.33 2.927-1.996 4.351-1.996 4.351h6.21l15.012-34.666s.443-.9 1.257-2.702c.813-1.8 1.627-4.126 2.366-6.827a26.215 26.215 0 00.887-8.33c-.148-2.85-1.036-5.402-2.81-7.577z" fill="#000000"></path><path d="M5.55 40.667c2.219 2.552 4.66 4.277 7.322 5.178 2.736.9 5.324 1.35 7.838 1.275 2.514-.074 4.584-.3 6.21-.75 1.701-.45 2.515-.676 2.515-.676l2.514-4.952s-.518.3-1.552.75c-1.036.524-2.441.976-4.215 1.275-1.774.376-3.771.376-6.063.075-2.292-.376-4.658-1.276-7.099-2.851-1.997-1.276-3.476-2.851-4.51-4.727-1.036-1.877-1.7-3.677-2.07-5.477-.37-1.8-.593-3.302-.593-4.503v-1.8s.074-.9.37-2.626.887-3.827 1.923-6.228c.962-2.477 2.588-4.802 4.806-7.054 2.145-2.25 5.176-3.976 8.947-5.177 3.772-1.2 8.577-1.35 14.42-.6-.444-.45-2.071-.9-4.954-1.427-2.885-.45-6.286-.45-10.278 0C17.089.898 13.243 2.4 9.546 4.95c-3.623 2.477-6.432 6.53-8.428 12.08C.082 20.032-.212 23.634.156 27.91c.443 4.278 2.219 8.555 5.397 12.756l-.002.001z" fill="#000000"></path></svg>